<svg width="88" height="88" viewBox="0 0 88 88" fill="none" xmlns="http://www.w3.org/2000/svg">
<path d="M40.0187 42.5334C40.0187 41.7234 39.3621 41.0668 38.5521 41.0668H37.8753C37.5942 41.0668 37.3191 41.1476 37.0826 41.2995L34.2137 43.1426C33.9143 43.3349 33.7333 43.6663 33.7333 44.0221C33.7333 44.8478 34.6456 45.3475 35.3414 44.903L37.2094 43.7097C37.2202 43.7028 37.2329 43.6991 37.2458 43.6991C37.2832 43.6991 37.3135 43.7294 37.3135 43.7668V54.6475C37.3135 55.3945 37.9191 56.0001 38.6661 56.0001C39.4132 56.0001 40.0187 55.3945 40.0187 54.6475V42.5334Z" fill="#111111"/>
<path d="M45.981 55.6574C46.749 56.022 47.6192 56.2043 48.5914 56.2043C49.6463 56.2043 50.5747 55.9855 51.3768 55.548C52.1838 55.1057 52.8133 54.5005 53.2654 53.7324C53.7223 52.9595 53.9508 52.0796 53.9508 51.0928C53.9508 50.1352 53.7466 49.2845 53.3383 48.5407C52.93 47.797 52.3709 47.2137 51.6612 46.7907C50.9515 46.363 50.1445 46.1491 49.2404 46.1491C48.6376 46.1491 48.0834 46.2584 47.5779 46.4772C47.0824 46.6868 46.6966 46.9501 46.4206 47.2671C46.4099 47.2794 46.3945 47.2866 46.3783 47.2866C46.3452 47.2866 46.3195 47.2579 46.3231 47.2251L46.6045 44.6354C46.6853 43.8911 47.3139 43.3272 48.0626 43.3272H52.0404C52.6646 43.3272 53.1706 42.8212 53.1706 42.197C53.1706 41.5728 52.6646 41.0668 52.0404 41.0668H45.8336C45.0809 41.0668 44.4503 41.6367 44.3744 42.3856L43.8669 47.395C43.7887 48.1659 44.3238 48.8646 45.0884 48.9902L45.3856 49.0389C45.8752 49.1193 46.3631 48.9237 46.7976 48.6841C46.9214 48.6158 47.0551 48.5535 47.1987 48.497C47.6313 48.3268 48.0713 48.2442 48.5185 48.2491C49.0678 48.2491 49.5539 48.3755 49.9768 48.6282C50.3997 48.8762 50.7327 49.2189 50.9758 49.6564C51.2188 50.0939 51.3379 50.5946 51.3331 51.1584C51.3379 51.7126 51.2213 52.206 50.9831 52.6387C50.7449 53.0713 50.4192 53.4091 50.006 53.6522C49.5928 53.8953 49.1213 54.0168 48.5914 54.0168C47.9157 54.0168 47.3372 53.8248 46.856 53.4407C46.7178 53.329 46.5974 53.2081 46.4948 53.078C46.0625 52.5292 45.5225 51.9387 44.8238 51.9387C44.0655 51.9387 43.432 52.5856 43.702 53.2942C43.8156 53.5923 43.9652 53.8745 44.1508 54.1407C44.6029 54.7824 45.2129 55.288 45.981 55.6574Z" fill="#111111"/>
<path fill-rule="evenodd" clip-rule="evenodd" d="M33.7333 20.5334C32.9233 20.5334 32.2667 21.1901 32.2667 22.0001V23.4668H26.4C23.1599 23.4668 20.5333 26.0934 20.5333 29.3334V61.6001C20.5333 64.8402 23.1599 67.4668 26.4 67.4668H61.6C64.8401 67.4668 67.4667 64.8402 67.4667 61.6001V29.3334C67.4667 26.0934 64.8401 23.4668 61.6 23.4668H55.7333V22.0001C55.7333 21.1901 55.0767 20.5334 54.2667 20.5334C53.4566 20.5334 52.8 21.1901 52.8 22.0001V23.4668H35.2V22.0001C35.2 21.1901 34.5433 20.5334 33.7333 20.5334ZM61.6 26.4001C63.22 26.4001 64.5333 27.7134 64.5333 29.3334V30.8001H23.4667V29.3334C23.4667 27.7134 24.78 26.4001 26.4 26.4001H61.6ZM64.5333 61.6001V33.0001H23.4667V61.6001C23.4667 63.2201 24.78 64.5334 26.4 64.5334H61.6C63.22 64.5334 64.5333 63.2201 64.5333 61.6001Z" fill="#111111"/>
</svg>
