<svg width="32" height="32" viewBox="0 0 32 32" fill="none" xmlns="http://www.w3.org/2000/svg">
<rect x="1.25" y="1.25" width="29.5" height="29.5" rx="13.75" stroke="#EDC208" stroke-width="2.5"/>
<path fill-rule="evenodd" clip-rule="evenodd" d="M14.8107 14.7787C14.5815 14.4503 14.374 14.1285 14.2263 13.8535C14.1524 13.7157 14.0996 13.6011 14.0668 13.5115C14.0438 13.4488 14.037 13.4155 14.0352 13.4063L14.0347 13.4039C14.0355 13.1264 14.0728 13.0128 14.119 12.9161C14.1497 12.8517 14.1918 12.7814 14.26 12.6751C14.2744 12.6527 14.2901 12.6285 14.3068 12.6028C14.3643 12.5141 14.434 12.4066 14.5076 12.2847C14.5196 12.2648 14.5377 12.2386 14.5749 12.1855L14.5756 12.1845C14.6086 12.1375 14.6527 12.0746 14.6972 12.0036C14.7876 11.8594 14.8933 11.6612 14.9559 11.4063C15.0907 10.8565 14.9834 10.2345 14.5525 9.53162C14.0813 8.68564 13.3734 7.36846 13.004 6.7231C12.7202 6.22746 12.3281 6.05564 11.984 6.05014C11.117 6.03627 9.83032 7.14482 9.52214 8.05691C9.41551 8.37249 9.3623 8.77017 9.3623 9.30299C9.3623 10.4155 9.71085 11.967 10.553 13.821C12.2318 17.5169 14.9648 20.8354 18.0084 22.8739C19.5352 23.8966 20.8129 24.3198 21.7291 24.3198C22.1679 24.3198 22.4954 24.2552 22.7553 24.1257C23.5053 23.7521 24.4193 22.1881 24.4079 21.1364C24.4034 20.7185 24.2619 20.2424 23.8537 19.8978C23.3223 19.4492 22.2375 18.5896 21.5408 18.0175C20.962 17.4942 20.4497 17.3639 19.997 17.5277C19.787 17.6036 19.6238 17.732 19.5051 17.8418C19.4466 17.8958 19.3948 17.9493 19.3561 17.9894L19.3553 17.9902C19.3115 18.0355 19.29 18.0574 19.2736 18.072C19.1732 18.1614 19.0847 18.246 19.0116 18.3158C18.9905 18.3361 18.9706 18.3551 18.952 18.3726C18.8646 18.4555 18.8066 18.5065 18.7536 18.5439C18.674 18.5999 18.5805 18.6452 18.3519 18.6462L18.3499 18.6456C18.3424 18.6434 18.3149 18.6351 18.2632 18.6072C18.1895 18.5674 18.0951 18.5033 17.9817 18.4136C17.7552 18.2343 17.4902 17.9823 17.2197 17.7039C16.3498 16.8085 15.5481 15.835 14.8107 14.7787ZM10.3929 8.49071C10.3497 8.61862 10.3035 8.85317 10.3035 9.30299C10.3035 10.1557 10.5799 11.5139 11.3772 13.2691C12.9705 16.7767 15.5743 19.9385 18.4629 21.8732C19.9084 22.8413 21.0269 23.177 21.7291 23.177C22.0996 23.177 22.2927 23.1209 22.3981 23.0684C22.8575 22.8395 23.3038 21.8882 23.4449 21.3287C23.4586 21.2742 23.4675 21.2121 23.4668 21.1515C23.4662 21.0926 23.4568 21.041 23.4383 20.9957C23.4209 20.9528 23.3878 20.8964 23.3165 20.8362C22.7829 20.3858 21.7317 19.5542 21.0043 18.9565C20.998 18.9514 20.9918 18.946 20.9858 18.9405C20.5602 18.5532 20.3502 18.5924 20.2657 18.623C20.2058 18.6446 20.1456 18.686 20.0752 18.751C20.0395 18.7841 20.0056 18.8189 19.9655 18.8603L19.9587 18.8673C19.9241 18.9032 19.8769 18.952 19.8301 18.9937C19.744 19.0703 19.6726 19.1385 19.6016 19.2064L19.6012 19.2068C19.5779 19.2291 19.5546 19.2513 19.5309 19.2738C19.4398 19.3601 19.3386 19.4531 19.2256 19.5326C18.974 19.7097 18.7089 19.7891 18.3439 19.7891C18.1718 19.7891 18.0085 19.7204 17.8808 19.6515C17.745 19.5782 17.6048 19.4795 17.4677 19.3709C17.1932 19.1536 16.8938 18.8666 16.6111 18.5757C15.7019 17.6398 14.8635 16.6217 14.0928 15.5177C13.8532 15.1744 13.6168 14.8109 13.4379 14.4776C13.3485 14.3111 13.2672 14.1408 13.2069 13.976C13.15 13.8209 13.0935 13.6226 13.0935 13.4137C13.0935 12.9704 13.1589 12.6485 13.3047 12.343C13.3702 12.2058 13.4468 12.0829 13.5179 11.9723C13.5364 11.9435 13.5547 11.9152 13.573 11.8869L13.5733 11.8865C13.6292 11.8002 13.6854 11.7135 13.7485 11.6089C13.7828 11.5521 13.823 11.4949 13.8526 11.4528L13.8584 11.4445C13.8925 11.3958 13.9212 11.3546 13.9484 11.3113C14.0019 11.2259 14.036 11.1527 14.0538 11.08C14.079 10.9774 14.1113 10.7223 13.7923 10.2056C13.7878 10.1982 13.7834 10.1907 13.7791 10.1831C13.287 9.2999 12.6021 8.02334 12.2312 7.37543C12.1816 7.28891 12.1352 7.2487 12.0998 7.22751C12.0625 7.20513 12.02 7.19367 11.9716 7.19289C11.9217 7.1921 11.8705 7.20289 11.8256 7.21959C11.3586 7.3932 10.5843 7.92419 10.3929 8.49071Z" fill="#EDC208"/>
</svg>
