<svg width="45" height="32" viewBox="0 0 45 32" fill="none" xmlns="http://www.w3.org/2000/svg">
<path fill-rule="evenodd" clip-rule="evenodd" d="M44.8058 4.25731C44.9325 4.72245 45 5.21076 45 5.71429V26.2857C45 29.4416 42.3491 32 39.0789 32H5.92105C2.65094 32 0 29.4416 0 26.2857V5.71429C0 2.55837 2.65095 0 5.92105 0H39.0789C40.935 0 42.5916 0.824154 43.6772 2.11398C44.1992 2.73406 44.5891 3.46182 44.8058 4.25731ZM5.92105 2.28571H39.0789C40.2816 2.28571 41.3446 2.86239 41.9874 3.74485L26.6869 18.511C24.3746 20.7426 20.6256 20.7426 18.3133 18.511L3.0127 3.74477C3.65547 2.86236 4.71848 2.28571 5.92105 2.28571ZM2.36842 6.35548V26.2857C2.36842 28.1793 3.95899 29.7143 5.92105 29.7143H39.0789C41.041 29.7143 42.6316 28.1793 42.6316 26.2857V6.35561L28.3616 20.1273C25.1244 23.2515 19.8758 23.2515 16.6385 20.1273L2.36842 6.35548Z" fill="#EDC208"/>
</svg>
